<svg width="24" height="24" viewBox="0 0 24 24" fill="none" xmlns="http://www.w3.org/2000/svg">
<path d="M13.4251 3.90114L15.029 7.00507C15.2294 7.5057 15.7306 7.80608 16.2318 7.90621L19.64 8.40684C20.9431 8.6071 21.4443 10.2091 20.5422 11.1103L18.0362 13.4132C17.6352 13.8137 17.4347 14.3143 17.535 14.815L18.1364 18.1191C18.3369 19.4208 17.0338 20.4221 15.8309 19.8213L12.7234 18.2193C12.2222 18.019 11.721 18.019 11.2198 18.2193L8.1124 19.8213C6.90952 20.4221 5.6064 19.4208 5.80688 18.1191L6.40832 14.815C6.50856 14.3143 6.30808 13.7136 5.90712 13.4132L3.50136 11.0101C2.49896 10.109 3.1004 8.50697 4.40352 8.30672L7.81168 7.80608C8.31288 7.70596 8.81408 7.40558 9.01456 7.00507L10.5182 3.90114C11.2198 2.69962 12.8237 2.69962 13.4251 3.90114Z" stroke="#777E90" stroke-width="1.5" stroke-linecap="round" stroke-linejoin="round"/>
</svg>
